<?xml version="1.0" encoding="utf-8"?>
<svg version="1.1" xmlns="http://www.w3.org/2000/svg" xmlns:xlink="http://www.w3.org/1999/xlink" x="0px" y="0px"
	 width="500px" height="500px" viewBox="0 0 500 500" enable-background="new 0 0 500 500" xml:space="preserve">
<g id="Pinterest">
	<path d="M500,250c0,138.1-111.9,250-250,250c-26.9,0-52.8-4.3-77.2-12.1c-3.5-1.1-6.9-2.3-10.3-3.6C67.6,448.8,0,357.3,0,250
		C0,111.9,111.9,0,250,0S500,111.9,500,250z"/>
	<path fill="white" d="M402,229.3c0,15.2-1.5,30.1-4.5,44.7c-3,14.6-7.8,28.6-14.3,42s-14.4,25.3-23.8,35.5
		c-9.3,10.2-20.8,18.4-34.4,24.5c-13.6,6.1-28.6,9.1-44.9,9.1c-10.8,0-21.4-2.5-32.1-7.6c-10.6-5.1-18.2-12-22.8-20.9
		c-1.6,6.2-3.8,15.1-6.6,26.7c-2.9,11.6-4.7,19.2-5.6,22.6c-0.9,3.4-2.5,9-4.9,16.9c-2.4,7.8-4.4,13.5-6.2,16.9
		c-1.7,3.4-4.3,8.3-7.6,14.8c-3.3,6.5-7,12.6-10.9,18.4c-3,4.4-6.5,9.4-10.7,15c-3.5-1.1-6.9-2.3-10.3-3.6
		c-1.9-20.1-2.8-32.4-2.8-36.7c0-14.6,1.7-30.9,5.1-49c3.4-18.1,8.7-40.9,15.8-68.3s11.2-43.5,12.3-48.2
		c-5.1-10.3-7.6-23.7-7.6-40.1c0-13.1,4.1-25.5,12.3-37.1s18.7-17.3,31.3-17.3c9.7,0,17.2,3.2,22.6,9.6c5.4,6.4,8.1,14.5,8.1,24.3
		c0,10.4-3.5,25.6-10.5,45.4c-7,19.8-10.4,34.6-10.4,44.4c0,10,3.6,18.3,10.7,24.8c7.1,6.6,15.8,9.8,25.9,9.8c8.7,0,16.8-2,24.2-5.9
		c7.4-4,13.6-9.3,18.6-16.1c5-6.8,9.4-14.3,13.3-22.6c3.9-8.2,6.9-17,9-26.3c2.1-9.3,3.7-18.1,4.8-26.4c1-8.3,1.5-16.2,1.5-23.6
		c0-27.4-8.7-48.7-26-64c-17.3-15.3-39.9-22.9-67.8-22.9c-31.7,0-58.1,10.3-79.3,30.8c-21.2,20.5-31.8,46.5-31.8,78
		c0,7,1,13.7,3,20.2c2,6.5,4.1,11.6,6.4,15.4c2.3,3.8,4.4,7.4,6.4,10.8c2,3.4,3,5.8,3,7.2c0,4.4-1.2,10.2-3.6,17.3
		c-2.4,7.1-5.3,10.7-8.8,10.7c-0.3,0-1.7-0.2-4-0.7c-8.1-2.4-15.2-6.8-21.5-13.3c-6.3-6.5-11.1-14-14.5-22.4c-3.4-8.5-6-17-7.7-25.7
		S98,249.4,98,241.2c0-17.1,3-33.2,8.9-48.3c5.9-15.1,14.1-28.3,24.6-39.5s22.5-21,36.1-29.2c13.6-8.2,28.3-14.4,43.9-18.5
		c15.7-4.1,31.7-6.2,48-6.2c25,0,48.3,5.3,69.8,15.8c21.5,10.5,39,25.8,52.5,46C395.3,181.3,402,204,402,229.3z"/>
</g>
</svg>
